<svg width="20" height="20" viewBox="0 0 20 20" fill="none" xmlns="http://www.w3.org/2000/svg">
<g id="Group 235337">
<path id="Vector" d="M10 0C4.48595 0 0 4.48595 0 10C0 15.514 4.48595 20 10 20C15.514 20 20 15.514 20 10C20 4.48595 15.514 0 10 0ZM10 18.5714C5.27373 18.5714 1.42857 14.7263 1.42857 10C1.42857 5.27373 5.27373 1.42857 10 1.42857C14.7263 1.42857 18.5714 5.27373 18.5714 10C18.5714 14.7263 14.7263 18.5714 10 18.5714Z" fill="#253858"/>
<path id="Vector_2" d="M13.0644 6.93556C12.7854 6.65659 12.3332 6.65659 12.0542 6.93556L9.99995 8.98985L7.94558 6.93548C7.66661 6.65652 7.21439 6.65652 6.93542 6.93548C6.65645 7.21445 6.65645 7.66667 6.93542 7.94564L8.98979 10L6.93542 12.0544C6.65645 12.3333 6.65645 12.7856 6.93542 13.0645C7.07487 13.204 7.25772 13.2737 7.4405 13.2737C7.62328 13.2737 7.80606 13.204 7.94558 13.0645L9.99995 11.0102L12.0543 13.0645C12.1938 13.204 12.3766 13.2737 12.5594 13.2737C12.7422 13.2737 12.9249 13.204 13.0645 13.0645C13.3434 12.7856 13.3434 12.3333 13.0645 12.0544L11.0101 10L13.0645 7.94564C13.3434 7.66675 13.3434 7.21445 13.0644 6.93556Z" fill="#253858"/>
</g>
</svg>
