<svg width="16" height="14" viewBox="0 0 16 14" fill="none" xmlns="http://www.w3.org/2000/svg">
<g id="Group 24041475">
<g id="Group">
<g id="Group_2">
<path id="Vector" d="M14.8832 5.87097H3.82165L7.73943 1.92929C8.17658 1.48942 8.17826 0.774569 7.74317 0.332609C7.30808 -0.109407 6.60096 -0.111044 6.16381 0.328771L0.328569 6.19974L0.327564 6.20081C-0.108471 6.64069 -0.109867 7.35785 0.327452 7.79919L0.328457 7.80026L6.1637 13.6712C6.60079 14.111 7.30792 14.1095 7.74306 13.6674C8.17814 13.2254 8.17647 12.5106 7.73932 12.0707L3.82165 8.12903H14.8832C15.5 8.12903 16 7.62356 16 7C16 6.37644 15.5 5.87097 14.8832 5.87097Z" fill="white"/>
</g>
</g>
</g>
</svg>
