<svg width="48" height="48" viewBox="0 0 48 48" fill="none" xmlns="http://www.w3.org/2000/svg">
<g id="Need help_icon">
<rect id="Rectangle 30429" opacity="0.7" width="48" height="48" rx="8" fill="#FFF0B3"/>
<g id="Group">
<path id="Vector" d="M39.2306 36.5999V40.9873H9.32617V36.5989C9.32617 34.5271 11.1123 31.9766 13.2943 30.9402L18.1497 28.6334L21.5202 35.6571L23.2459 30.9782C23.5862 31.0426 23.9235 31.1284 24.2784 31.1284C24.6333 31.1284 24.9696 31.0426 25.3109 30.9782L26.9488 35.427L30.253 28.5554L35.2654 30.9392C37.4445 31.9756 39.2306 34.5261 39.2306 36.5999ZM13.737 21.2226V18.0539C13.737 17.5167 14.0168 17.0458 14.4389 16.7748C15.0054 11.8434 19.1997 8 24.2803 8C29.3609 8 33.5562 11.8434 34.1237 16.7748C34.5449 17.0458 34.8247 17.5167 34.8247 18.0539V21.2226C34.8247 22.064 34.1432 22.7465 33.3008 22.7465C32.4584 22.7465 31.7769 22.064 31.7769 21.2226V20.5567C30.9521 24.7052 27.915 28.5564 24.2813 28.5564C20.6476 28.5564 17.6105 24.7052 16.7857 20.5567V21.2226C16.7857 21.9051 16.3323 22.4764 15.7132 22.6704C16.3197 24.7345 17.6651 26.5177 19.5234 27.6877C19.8666 27.5746 20.2995 27.596 20.7197 27.8144C21.3944 28.1654 21.7386 28.8479 21.4831 29.3354C21.2287 29.8229 20.476 29.9321 19.7974 29.5801C19.3021 29.3217 18.9882 28.8879 18.955 28.4823C16.8267 27.1212 15.3174 25.0377 14.6944 22.6344C14.1347 22.4101 13.737 21.8641 13.737 21.2226ZM15.4773 16.4189C15.5231 16.4218 15.567 16.4228 15.6109 16.4394C15.721 16.4803 15.801 16.5593 15.8566 16.6519C16.1871 16.7923 16.4503 17.0487 16.6122 17.3666C17.0616 13.1537 20.318 10.9249 24.2784 10.9249C28.2387 10.9249 31.4952 13.1537 31.9446 17.3666C32.1679 16.9288 32.592 16.6159 33.1 16.5505C32.4409 12.2675 28.7418 8.974 24.2784 8.974C19.8608 8.97498 16.191 12.2012 15.4773 16.4189Z" fill="#FFAB00"/>
</g>
</g>
</svg>
