<svg width="152" height="24" viewBox="0 0 152 24" fill="none" xmlns="http://www.w3.org/2000/svg">
<g id="LOGO">
<path id="Path 9636" d="M33.794 2.9375V4.85931H31.8457V2.9375H33.794Z" fill="#0065FF"/>
<g id="Group 10078">
<path id="Path 9624" d="M0 6.9448C0.373525 6.9448 0.746246 6.95609 1.11977 6.9569C1.99188 6.9569 2.86398 6.96093 3.73608 6.9569C3.89158 6.9569 3.93846 7.00131 3.93599 7.15554C3.92777 7.6909 3.93599 8.22546 3.93599 8.76082V8.98127L3.98784 9.00387C4.02816 8.95057 4.0701 8.89889 4.10959 8.84236C4.65077 7.95658 5.48555 7.28013 6.47417 6.92622C6.9471 6.74814 7.45261 6.6686 7.95856 6.69268C8.46451 6.71676 8.95984 6.84391 9.413 7.06606C9.86616 7.28821 10.2673 7.60051 10.5908 7.98306C10.9143 8.3656 11.1531 8.81003 11.2921 9.28809C11.6968 10.4233 11.8483 11.6305 11.7364 12.8281C11.6904 14.0021 11.368 15.1496 10.7944 16.1808C10.4278 16.8848 9.84883 17.4606 9.13646 17.8297C8.42408 18.1988 7.61302 18.3431 6.81396 18.2431C5.83813 18.1473 4.92742 17.7187 4.24043 17.0318C4.16119 16.9482 4.087 16.86 4.01827 16.7678L3.95081 16.8058V22.0609H1.96225C1.95731 22.0068 1.94909 21.9551 1.94909 21.8994C1.95293 17.7505 1.95594 13.6017 1.95813 9.45283C1.95932 9.13805 1.93428 8.82369 1.88326 8.51292C1.86854 8.28791 1.77169 8.07563 1.61046 7.91502C1.44922 7.7544 1.23442 7.6562 1.0054 7.63841C0.746947 7.59341 0.485912 7.56403 0.223788 7.55041C0.0872132 7.54233 0.0444355 7.49388 0.0436127 7.36549C0.0368034 7.23813 0.0233384 7.11118 0.00328916 6.98516L0 6.9448ZM3.9327 12.8297C3.9327 13.8237 3.9327 14.8177 3.93928 15.8118C3.94237 15.8661 3.95649 15.9193 3.98079 15.9683C4.00508 16.0172 4.0391 16.0609 4.08082 16.0968C4.80238 16.6653 5.66189 17.0404 6.57536 17.1853C6.9207 17.25 7.27679 17.2331 7.61415 17.1359C7.95151 17.0388 8.26045 16.8641 8.51538 16.6265C8.92712 16.214 9.21593 15.6988 9.35048 15.1367C9.72636 13.749 9.77727 12.2958 9.49939 10.8861C9.38499 10.154 9.10987 9.45501 8.6931 8.83753C8.45852 8.44976 8.09569 8.15253 7.66502 7.99533C7.23435 7.83813 6.7618 7.83043 6.32606 7.97352C5.37287 8.25346 4.54804 8.849 3.99196 9.65874C3.949 9.73512 3.92929 9.822 3.93519 9.90906C3.9319 10.8829 3.9327 11.8559 3.9327 12.8297Z" fill="#0065FF"/>
<path id="Path 9625" d="M58.2832 2.49768V1.88965H62.2151V8.9753C62.4899 8.64827 62.7244 8.32933 63.0008 8.04752C63.5395 7.45355 64.2426 7.0261 65.0244 6.81722C65.8062 6.60834 66.633 6.62703 67.4041 6.87101C67.9054 7.02993 68.3662 7.29231 68.7556 7.6405C69.145 7.98869 69.454 8.41463 69.6617 8.88972C70.0569 9.68618 70.2809 10.5539 70.3199 11.4389C70.4437 12.7535 70.2632 14.0785 69.7917 15.3149C69.4234 16.3278 68.7133 17.1868 67.7793 17.7494C66.9792 18.1877 66.0605 18.3724 65.1493 18.2783C64.238 18.1842 63.3787 17.8158 62.689 17.2237C62.5533 17.1066 62.4299 16.9758 62.2949 16.8588C62.2512 16.8197 62.1951 16.7966 62.1361 16.7934C62.1131 16.7934 62.081 16.8741 62.0711 16.9274C61.9987 17.2899 61.9345 17.6541 61.8572 18.0159C61.8448 18.0716 61.779 18.1596 61.7371 18.1604C61.227 18.1701 60.7161 18.1669 60.1739 18.1669V17.9246C60.1739 13.4318 60.1725 8.93923 60.1698 4.44694C60.1589 4.01681 60.1259 3.5875 60.071 3.16063C60.064 3.04617 60.0171 2.93756 59.9381 2.85302C59.8592 2.76848 59.753 2.71315 59.6374 2.69632C59.2656 2.62526 58.8904 2.57279 58.5161 2.51384C58.442 2.50819 58.3663 2.50575 58.2832 2.49768ZM62.2209 12.8488C62.2209 13.8428 62.2209 14.8376 62.2209 15.8316C62.2202 15.873 62.228 15.9141 62.2437 15.9525C62.2593 15.9909 62.2826 16.0258 62.3122 16.0553C63.0224 16.6052 63.8581 16.9774 64.7475 17.1398C65.3868 17.2987 66.0642 17.2049 66.6336 16.8783C67.203 16.5517 67.6189 16.0187 67.7916 15.394C68.0328 14.678 68.1574 13.9291 68.1611 13.175C68.2196 12.1478 68.1239 11.1178 67.8772 10.1179C67.7472 9.51904 67.4411 8.97075 66.9969 8.54088C66.6911 8.28226 66.3255 8.10116 65.9319 8.01346C65.5383 7.92576 65.1288 7.93413 64.7393 8.03783C63.7959 8.24546 62.9563 8.77086 62.3665 9.52278C62.2609 9.6393 62.206 9.79175 62.2135 9.94752C62.2242 10.9149 62.2209 11.8822 62.2209 12.8488Z" fill="#253858"/>
<path id="Path 9626" d="M81.0379 17.3235C81.0436 17.3978 81.0494 17.472 81.0551 17.5463C81.0979 18.0769 81.1004 18.0922 80.5697 18.1964C80.2531 18.2656 79.9289 18.2954 79.6046 18.2852C79.2335 18.2627 78.8794 18.1245 78.5939 17.8906C78.3084 17.6568 78.1065 17.3395 78.0176 16.9851C77.9658 16.8446 77.9287 16.6985 77.8777 16.5321C77.6572 16.7235 77.4524 16.9108 77.2368 17.0853C76.5682 17.6633 75.7593 18.0629 74.8879 18.2456C74.1226 18.4172 73.3199 18.3118 72.6274 17.9488C71.935 17.5858 71.3994 16.9897 71.1191 16.27C70.8388 15.5503 70.8326 14.7555 71.1018 14.0318C71.371 13.308 71.8974 12.704 72.5842 12.3308C73.3289 11.9196 74.1555 11.6717 75.0072 11.6041C75.7205 11.5314 76.4404 11.5177 77.157 11.4797C77.2393 11.4757 77.3215 11.4797 77.4252 11.4797C77.4902 10.5577 77.4224 9.63123 77.2236 8.7278C77.1237 8.34367 76.8883 8.00674 76.5591 7.77685C76.23 7.54697 75.8285 7.43903 75.426 7.47218C75.0761 7.48571 74.7296 7.54379 74.3951 7.64497C74.0476 7.74524 73.7426 7.95323 73.5257 8.23779C73.3087 8.52235 73.1914 8.8682 73.1914 9.22361C73.1799 9.35846 73.1725 9.49412 73.1626 9.64189H71.782V9.3843C71.782 8.84894 71.7779 8.31439 71.787 7.77984C71.7883 7.74025 71.7986 7.70143 71.8171 7.66623C71.8356 7.63103 71.8618 7.60032 71.8939 7.57634C73.2823 6.93198 74.811 6.63329 76.345 6.70668C76.9557 6.73178 77.5519 6.89776 78.0851 7.19118C78.4475 7.40544 78.7535 7.7004 78.9783 8.05221C79.2032 8.40402 79.3405 8.8028 79.3792 9.21634C79.4276 9.56206 79.4518 9.91063 79.4516 10.2596C79.4582 11.8503 79.4434 13.4411 79.4607 15.0318C79.4655 15.5577 79.5131 16.0823 79.603 16.6008C79.6163 16.8094 79.7088 17.0056 79.8621 17.1508C80.0154 17.2959 80.2186 17.3794 80.4315 17.3848C80.6351 17.3822 80.838 17.3616 81.0379 17.3235ZM77.4261 12.0998C76.4788 12.0346 75.5289 12.1832 74.6493 12.5343C74.148 12.7342 73.7262 13.0882 73.4473 13.5434C73.1684 13.9985 73.0474 14.5301 73.1026 15.0585C73.1152 15.3586 73.1918 15.6527 73.3276 15.922C73.4633 16.1912 73.655 16.4295 73.8904 16.6214C74.1259 16.8133 74.3997 16.9546 74.6942 17.0362C74.9887 17.1178 75.2975 17.1378 75.6004 17.0949C76.2054 16.9744 76.7792 16.7346 77.287 16.39C77.3346 16.3645 77.3734 16.3257 77.3986 16.2786C77.4238 16.2315 77.4342 16.1781 77.4285 16.1252C77.4244 14.9051 77.4285 13.685 77.4285 12.4649C77.4261 12.3526 77.4261 12.2436 77.4261 12.0998Z" fill="#253858"/>
<path id="Path 9627" d="M107.268 9.644H105.905C105.9 9.58586 105.89 9.53417 105.89 9.48249C105.89 8.91725 105.886 8.34395 105.894 7.77467C105.895 7.73523 105.905 7.69653 105.923 7.66144C105.942 7.62635 105.968 7.59577 106 7.57199C107.386 6.92264 108.917 6.62608 110.451 6.7096C110.872 6.7433 111.286 6.82902 111.685 6.96475C112.18 7.12905 112.615 7.43273 112.936 7.83793C113.256 8.24313 113.448 8.73196 113.488 9.24348C113.524 9.51493 113.54 9.78852 113.537 10.0623C113.537 11.7491 113.529 13.4367 113.546 15.1244C113.549 15.6034 113.598 16.0811 113.692 16.5512C113.699 16.6948 113.741 16.8347 113.814 16.9591C113.888 17.0835 113.99 17.1889 114.114 17.2664C114.237 17.3439 114.378 17.3912 114.524 17.4045C114.669 17.4177 114.816 17.3965 114.952 17.3425C115.006 17.3312 115.059 17.3223 115.137 17.307C115.157 17.5323 115.182 17.7471 115.192 17.9619C115.189 17.9859 115.179 18.0088 115.165 18.0285C115.151 18.0483 115.132 18.0642 115.109 18.0749C114.572 18.2832 113.987 18.3425 113.418 18.2461C113.129 18.1787 112.862 18.0393 112.644 17.8412C112.426 17.6432 112.263 17.3933 112.172 17.1156C112.097 16.9323 112.046 16.7401 111.976 16.5302C111.766 16.7135 111.564 16.8968 111.355 17.0672C110.691 17.6634 109.872 18.0683 108.989 18.2372C108.217 18.4099 107.408 18.3009 106.713 17.9307C106.017 17.5605 105.482 16.9545 105.209 16.2257C104.935 15.4969 104.941 14.6953 105.226 13.9706C105.51 13.2459 106.054 12.6477 106.755 12.2877C107.482 11.9015 108.283 11.6678 109.107 11.6013C109.834 11.5286 110.568 11.5149 111.298 11.4762C111.359 11.4762 111.42 11.4762 111.47 11.4762C111.489 11.4495 111.503 11.4382 111.502 11.4277C111.488 10.7163 111.512 10.0001 111.446 9.29275C111.445 8.95476 111.35 8.62341 111.172 8.33413C110.994 8.04485 110.739 7.80847 110.435 7.6503C110.152 7.51982 109.845 7.44751 109.532 7.43779C109.22 7.42807 108.909 7.48116 108.618 7.5938C107.578 7.95394 107.345 8.46344 107.269 9.50267C107.265 9.54143 107.268 9.58182 107.268 9.644ZM111.498 12.0923C110.631 12.0384 109.761 12.1576 108.941 12.4427C108.419 12.6123 107.966 12.9433 107.651 13.3861C107.336 13.829 107.175 14.36 107.193 14.8999C107.187 15.2135 107.251 15.5246 107.379 15.8117C107.508 16.0989 107.698 16.3553 107.937 16.5632C108.177 16.7712 108.459 16.9257 108.765 17.0162C109.071 17.1067 109.393 17.131 109.71 17.0874C110.3 16.9652 110.861 16.7319 111.361 16.4002C111.412 16.3732 111.453 16.3318 111.48 16.2815C111.507 16.2311 111.518 16.1741 111.512 16.1176C111.507 14.8498 111.512 13.5813 111.512 12.3135C111.508 12.2473 111.502 12.1803 111.498 12.0915V12.0923Z" fill="#253858"/>
<path id="Path 9628" d="M99.9969 11.4658C100.064 10.5407 99.9955 9.61101 99.7937 8.70501C99.6855 8.32746 99.4487 7.99773 99.1227 7.77084C98.7968 7.54395 98.4014 7.43362 98.0026 7.45825C97.5384 7.45392 97.0803 7.5612 96.6681 7.77074C96.4255 7.89326 96.2184 8.07392 96.0659 8.29597C95.9134 8.51801 95.8206 8.77425 95.796 9.04091C95.7664 9.23551 95.7532 9.43255 95.7318 9.64088H94.394C94.3845 9.59696 94.3782 9.55243 94.3751 9.50764C94.3751 8.92463 94.3701 8.34162 94.3792 7.75862C94.3828 7.71925 94.3956 7.68122 94.4166 7.64748C94.4375 7.61373 94.4661 7.58517 94.5002 7.56401C95.5703 7.07855 96.7207 6.78615 97.8964 6.70082C98.5454 6.64942 99.1987 6.70151 99.8307 6.85505C100.423 6.98747 100.955 7.30755 101.344 7.76591C101.733 8.22427 101.957 8.79544 101.982 9.39135C102.009 9.69819 102.02 10.0067 102.021 10.3143C102.028 12.0843 102.021 13.8535 102.039 15.6227C102.047 15.9373 102.087 16.2503 102.159 16.557C102.169 16.6947 102.211 16.8283 102.281 16.9477C102.352 17.0671 102.449 17.1692 102.566 17.2461C102.683 17.323 102.816 17.3728 102.955 17.3916C103.095 17.4104 103.237 17.3978 103.37 17.3547C103.438 17.3434 103.506 17.3273 103.612 17.3063C103.633 17.555 103.655 17.7948 103.676 18.046C103.03 18.3308 102.299 18.3716 101.623 18.1606C101.308 18.0057 101.037 17.7767 100.833 17.494C100.63 17.2112 100.501 16.8835 100.458 16.54C100.139 16.8024 99.8422 17.0665 99.5246 17.3039C98.828 17.8629 97.9777 18.2061 97.0819 18.2898C96.279 18.3819 95.4704 18.1723 94.8185 17.7031C94.1667 17.234 93.7199 16.54 93.568 15.7608C93.4189 15.0289 93.5318 14.269 93.8877 13.6094C94.2436 12.9498 94.8206 12.4311 95.5212 12.1408C96.2807 11.8068 97.0954 11.6099 97.9261 11.5594C98.5522 11.5078 99.1815 11.5029 99.8101 11.4787C99.8652 11.4739 99.9195 11.4706 99.9969 11.4658ZM99.9928 12.0924C99.0735 12.0327 98.152 12.1704 97.2925 12.4961C96.7942 12.683 96.3689 13.0199 96.0776 13.4585C95.7863 13.8972 95.6439 14.415 95.6709 14.938C95.6689 15.2487 95.7353 15.5562 95.8656 15.8394C95.996 16.1226 96.1871 16.3748 96.4259 16.5788C96.6648 16.7828 96.9457 16.9337 97.2495 17.0212C97.5533 17.1087 97.8727 17.1308 98.186 17.0859C98.7709 16.9689 99.3263 16.7392 99.82 16.41C99.8777 16.382 99.9254 16.3376 99.957 16.2825C99.9885 16.2275 100.002 16.1644 99.9969 16.1015C99.9903 14.8394 99.9969 13.5773 99.9969 12.3152L99.9928 12.0924Z" fill="#253858"/>
<path id="Path 9629" d="M18.0598 18.2515C16.8177 18.2909 15.6034 17.8848 14.6443 17.1091C13.6851 16.3335 13.0468 15.2414 12.8486 14.0373C12.6351 13.1803 12.5989 12.2899 12.7421 11.4189C12.8852 10.548 13.2048 9.71397 13.682 8.96629C14.0796 8.33469 14.6239 7.80449 15.2704 7.41909C15.917 7.03368 16.6473 6.80403 17.4016 6.74894C18.5707 6.59514 19.7587 6.82693 20.779 7.40785C21.388 7.77017 21.9153 8.25067 22.3285 8.81994C22.7417 9.3892 23.0322 10.0353 23.1822 10.7185C23.4249 11.568 23.4923 12.4564 23.3805 13.3317C23.2688 14.2071 22.9801 15.0517 22.5314 15.8162C22.1597 16.4787 21.6304 17.0432 20.9884 17.4616C20.3465 17.88 19.6111 18.1399 18.8447 18.2192C18.7702 18.2333 18.6949 18.2436 18.6193 18.2499C18.4334 18.2564 18.2466 18.2515 18.0598 18.2515ZM21.331 12.2713C21.3014 11.9911 21.2702 11.4913 21.192 10.9995C21.0676 10.0323 20.6935 9.11227 20.1052 8.32677C19.9133 8.05187 19.6657 7.81878 19.3778 7.64208C19.0899 7.46538 18.768 7.34888 18.4322 7.29984C18.0963 7.25081 17.7538 7.27028 17.426 7.35709C17.0982 7.44389 16.7922 7.59615 16.5271 7.80432C16.0011 8.22598 15.6004 8.77878 15.367 9.40475C14.7446 10.9637 14.6055 12.6683 14.9671 14.3045C15.1233 15.2195 15.5204 16.0785 16.119 16.7964C16.5016 17.2617 17.0455 17.5722 17.6467 17.6686C18.248 17.7649 18.8643 17.6404 19.3779 17.3189C19.8925 16.9743 20.3031 16.5001 20.5667 15.9462C21.1082 14.7959 21.3699 13.5379 21.331 12.2713Z" fill="#0065FF"/>
<path id="Path 9630" d="M85.2819 17.2904H92.6159V18.0406H82.8467C82.7987 17.7176 82.8696 17.3884 83.0466 17.112C85.3322 13.9849 87.6062 10.8494 89.8687 7.70562C89.8951 7.66929 89.9198 7.63135 89.9667 7.56191H89.7133C88.308 7.56191 86.9027 7.56189 85.4983 7.56674C85.217 7.56674 84.9348 7.60792 84.6534 7.62891C84.5615 7.6307 84.4736 7.66614 84.4069 7.72829C84.3402 7.79044 84.2996 7.87482 84.293 7.96484C84.2636 8.16792 84.2471 8.37261 84.2437 8.57772C84.2354 8.82884 84.2437 9.08157 84.2437 9.34481H83.1412V6.94336H92.3312C92.36 7.10696 92.3554 7.27453 92.3178 7.4364C92.2803 7.59827 92.2104 7.75124 92.1124 7.8865C89.8668 10.9549 87.6325 14.0341 85.4095 17.1241C85.3766 17.1685 85.3428 17.2105 85.2819 17.2904Z" fill="#253858"/>
<path id="Path 9631" d="M115.913 7.50789V6.94267H119.849V8.95248C120.882 7.38919 122.203 6.43637 124.201 6.75775V9.81085H123.087C123.047 9.50643 123.017 9.19554 122.963 8.88789C122.875 8.39452 122.799 8.33153 122.291 8.34122C121.866 8.35788 121.451 8.47222 121.08 8.67503C120.708 8.87784 120.39 9.16345 120.152 9.50886C119.938 9.76792 119.827 10.0946 119.841 10.4278C119.86 12.0734 119.841 13.7191 119.853 15.3647C119.853 15.7741 119.895 16.1843 119.929 16.5921C119.927 16.7619 119.99 16.9264 120.105 17.0532C120.22 17.1799 120.379 17.2597 120.552 17.2768C120.913 17.3301 121.277 17.3616 121.64 17.3996C121.762 17.4125 121.887 17.4141 122.014 17.4214V18.0391H115.901C115.893 17.8625 115.896 17.6857 115.909 17.5094C115.914 17.4674 116.019 17.4141 116.084 17.4044C116.425 17.3535 116.77 17.3237 117.11 17.2712C117.283 17.2603 117.444 17.1857 117.563 17.0624C117.681 16.939 117.748 16.7761 117.749 16.6066C117.778 16.2239 117.821 15.8419 117.823 15.46C117.83 13.4779 117.83 11.4963 117.823 9.51531C117.823 9.09219 117.768 8.66906 117.724 8.24756C117.718 8.12617 117.67 8.01043 117.588 7.91972C117.505 7.829 117.394 7.76884 117.271 7.74934C116.834 7.66051 116.381 7.59025 115.913 7.50789Z" fill="#253858"/>
<path id="Path 9632" d="M23.2793 2.45655V1.9123C23.3616 1.90826 23.4258 1.90183 23.4932 1.90183C24.6352 1.90183 25.7771 1.90666 26.9183 1.89697C27.1215 1.89697 27.1552 1.9664 27.1561 2.14566C27.1561 4.62194 27.1621 7.09688 27.1742 9.57047C27.1818 12.2852 27.1895 15 27.1972 17.7147C27.1972 18.0184 27.1972 18.0184 26.8936 18.0192H25.0482C25.0433 17.9384 25.0359 17.873 25.0367 17.8068C25.0449 16.3122 25.0515 14.8191 25.0647 13.3237C25.0745 12.2546 25.0959 11.1854 25.1083 10.1163C25.1305 8.11538 25.1543 6.11445 25.1675 4.11351C25.167 3.86025 25.1394 3.60776 25.0852 3.36014C25.056 3.17957 24.9707 3.01224 24.8409 2.88102C24.7112 2.7498 24.5434 2.66106 24.3604 2.62693C24.0099 2.55183 23.6495 2.51388 23.2793 2.45655Z" fill="#0065FF"/>
<path id="Path 9633" d="M56.5249 6.95694C56.2995 7.38329 56.0667 7.77894 55.875 8.19318C54.7604 10.6065 53.6511 13.0225 52.547 15.4411C51.7415 17.1982 50.9443 18.9593 50.1322 20.7132C50.0243 21.0364 49.8292 21.3248 49.5675 21.5478C49.3059 21.7707 48.9875 21.9199 48.6464 21.9793C48.3511 22.0147 48.0536 22.0304 47.7561 22.0262C47.1679 22.0262 46.5796 22.0052 45.9922 21.9906C45.8688 21.9906 45.7454 21.9713 45.6269 21.9616C45.5496 21.6386 45.5726 21.603 45.8737 21.6119C46.2604 21.624 46.6471 21.6442 47.0338 21.6693C47.6571 21.7247 48.2841 21.6151 48.8496 21.3519C49.2037 21.1994 49.4885 20.9248 49.6501 20.58C49.878 20.0599 50.0689 19.5246 50.2778 18.9965C50.3807 18.7349 50.472 18.4684 50.5946 18.2165C50.6246 18.1603 50.6406 18.098 50.6415 18.0345C50.6424 17.9711 50.628 17.9084 50.5996 17.8515C49.4346 15.0942 48.2717 12.3358 47.1111 9.5764C46.9597 9.21627 46.8232 8.84968 46.6545 8.49842C46.5524 8.23896 46.3791 8.01227 46.1539 7.8434C45.9287 7.67453 45.6604 7.57007 45.3784 7.54156C45.3357 7.53752 45.2962 7.46079 45.2624 7.41396C45.2559 7.40508 45.2624 7.38732 45.2624 7.37359C45.2699 6.86326 45.1991 6.96096 45.6738 6.95773C46.6224 6.95208 47.571 6.95773 48.5188 6.95773H48.7755C48.7755 7.20885 48.7895 7.44223 48.7755 7.66913C48.7562 8.10815 48.8442 8.54535 49.0322 8.94415C49.9438 11.0947 50.8518 13.2467 51.7563 15.4C51.7818 15.4605 51.8115 15.5195 51.851 15.6043C51.8818 15.5682 51.9093 15.5296 51.9332 15.4888C52.8613 13.4119 53.8033 11.3416 54.7058 9.25423C55.0012 8.5711 55.1995 7.84678 55.4307 7.137C55.4352 7.10773 55.4458 7.07965 55.4617 7.05447C55.4775 7.0293 55.4984 7.00752 55.5231 6.99048C55.5478 6.97343 55.5757 6.96147 55.6052 6.95529C55.6347 6.94911 55.6652 6.94883 55.6948 6.9545C55.9589 6.9658 56.2337 6.95694 56.5249 6.95694Z" fill="#0065FF"/>
<path id="Path 9634" d="M44.1146 16.8427C44.1146 17.0849 44.122 17.3078 44.1096 17.5258C44.1058 17.5588 44.0944 17.5904 44.0763 17.6184C44.0582 17.6464 44.0338 17.6699 44.0051 17.6873C42.5141 18.3234 40.8472 18.4432 39.2777 18.0273C38.4962 17.8011 37.7831 17.3905 37.2007 16.8314C36.6182 16.2723 36.1842 15.5817 35.9365 14.82C35.5465 13.8693 35.3921 12.8413 35.4859 11.8205C35.5797 10.7998 35.9191 9.81559 36.4762 8.94875C36.8716 8.31951 37.4141 7.79175 38.0586 7.40911C38.7031 7.02648 39.4312 6.79997 40.1827 6.74835C41.4615 6.6785 42.7432 6.81935 43.9747 7.16503C44.0841 7.18926 44.1146 7.24578 44.1146 7.35318C44.1118 8.11436 44.1118 8.87555 44.1146 9.63674C44.1146 9.77078 44.066 9.8184 43.9319 9.81436C43.6555 9.80629 43.3782 9.80386 43.1017 9.81436C42.9372 9.82082 42.8928 9.77077 42.8796 9.60766C42.8611 9.30813 42.8152 9.01084 42.7422 8.71943C42.6979 8.49346 42.6085 8.27831 42.4794 8.08624C42.3503 7.89417 42.1838 7.72895 41.9896 7.60004C41.7954 7.47114 41.5772 7.38107 41.3474 7.33497C41.1177 7.28886 40.881 7.28764 40.6508 7.33137C40.1098 7.36419 39.5895 7.54703 39.1502 7.85864C38.711 8.17025 38.3708 8.59784 38.1694 9.09167C37.8304 9.79844 37.6305 10.5617 37.5803 11.3413C37.4724 12.4828 37.6031 13.6338 37.9646 14.7239C38.1372 15.3722 38.4973 15.9576 39.0014 16.4095C39.5055 16.8614 40.1321 17.1605 40.8055 17.2707C41.8342 17.4424 42.8914 17.3277 43.857 16.9396L44.1146 16.8427Z" fill="#0065FF"/>
<path id="Path 9635" d="M29.928 7.53264V6.97144H33.7948C33.8269 10.6455 33.8599 14.3114 33.8919 17.9968H31.7528C31.7528 17.8353 31.7528 17.6649 31.7528 17.4953C31.7676 15.9256 31.7827 14.3556 31.7981 12.7853C31.8087 11.6064 31.8228 10.4267 31.8252 9.24773C31.8249 9.00144 31.8012 8.75571 31.7545 8.51373C31.7352 8.28618 31.6339 8.07283 31.4688 7.91196C31.3037 7.7511 31.0855 7.65326 30.8536 7.63599C30.7046 7.60854 30.5541 7.58674 30.4035 7.57059C30.253 7.55444 30.104 7.54556 29.928 7.53264Z" fill="#0065FF"/>
<path id="Path 9637" d="M151.383 12.1122C151.36 14.4807 150.624 16.7897 149.267 18.7483C147.909 20.7069 145.992 22.2275 143.756 23.1185C141.52 24.0096 139.065 24.2312 136.701 23.7555C134.337 23.2798 132.169 22.1281 130.47 20.4454C128.772 18.7627 127.619 16.6243 127.156 14.2996C126.694 11.9749 126.943 9.56785 127.871 7.38168C128.8 5.19552 130.367 3.32801 132.376 2.01443C134.384 0.700847 136.743 -5.57697e-05 139.157 3.32826e-09C142.414 0.0151698 145.533 1.29976 147.825 3.5712C150.118 5.84265 151.398 8.91492 151.383 12.1122Z" fill="#0065FF"/>
<g id="Group 6560">
<path id="Path 9638" d="M134.758 15.1954L135.586 14.9757C135.729 15.4848 135.68 16.0272 135.45 16.5043C135.217 16.9577 134.819 17.3095 134.336 17.491C134.052 17.621 133.742 17.6891 133.429 17.6905C133.116 17.6919 132.806 17.6266 132.52 17.4991C131.889 17.1672 131.411 16.6103 131.186 15.9431C130.987 15.4927 130.886 15.0069 130.889 14.5163C130.892 14.0933 131.038 13.6834 131.305 13.3511C131.57 13.0224 131.917 12.7665 132.312 12.6082C132.755 12.4053 133.255 12.3602 133.728 12.4806C134.18 12.6201 134.565 12.9182 134.807 13.318L134.081 13.7532C133.918 13.5024 133.677 13.3103 133.393 13.2057C133.137 13.124 132.859 13.1384 132.613 13.2461C132.425 13.3166 132.255 13.4277 132.116 13.5713C131.977 13.7148 131.873 13.8871 131.811 14.0754C131.69 14.5846 131.756 15.1194 131.998 15.5854C132.156 16.0848 132.485 16.5153 132.93 16.8039C133.102 16.8951 133.293 16.946 133.489 16.9528C133.684 16.9595 133.879 16.9218 134.057 16.8426C134.351 16.7328 134.59 16.5154 134.724 16.2362C134.857 15.9036 134.87 15.5358 134.758 15.1954Z" fill="white"/>
<path id="Path 9639" d="M135.67 14.0971C135.494 13.7549 135.396 13.3789 135.384 12.9957C135.372 12.6125 135.445 12.2313 135.599 11.8789C135.865 11.3635 136.317 10.9633 136.866 10.7557C137.156 10.6252 137.471 10.5562 137.79 10.5533C138.109 10.5504 138.425 10.6136 138.717 10.7388C139.03 10.888 139.31 11.0967 139.54 11.3526C139.771 11.6086 139.947 11.9069 140.059 12.2302C140.285 12.7087 140.394 13.2325 140.376 13.7596C140.34 14.173 140.18 14.5665 139.915 14.89C139.647 15.2222 139.295 15.4806 138.895 15.6402C138.604 15.7731 138.288 15.8439 137.967 15.8481C137.646 15.8523 137.328 15.7897 137.034 15.6644C136.387 15.3389 135.896 14.7756 135.67 14.0971ZM136.493 13.762C136.654 14.2562 136.993 14.6762 137.446 14.9442C137.629 15.0337 137.828 15.0837 138.032 15.0906C138.236 15.0975 138.439 15.0612 138.627 14.9841C138.815 14.9071 138.984 14.7912 139.123 14.6443C139.261 14.4973 139.366 14.3228 139.429 14.1326C139.559 13.6191 139.497 13.077 139.255 12.6041C139.095 12.1204 138.76 11.7111 138.313 11.4534C138.133 11.3604 137.934 11.3082 137.731 11.3007C137.529 11.2932 137.326 11.3304 137.14 11.4098C136.949 11.4834 136.778 11.5978 136.638 11.7448C136.498 11.8917 136.393 12.0675 136.331 12.2593C136.198 12.7628 136.255 13.2964 136.491 13.762H136.493Z" fill="white"/>
<path id="Path 9640" d="M141.994 14.2472L140.054 9.57838L140.769 9.28686L141.041 9.94174C141.094 9.65262 141.217 9.38046 141.401 9.14879C141.598 8.9031 141.857 8.71305 142.153 8.59808C142.449 8.46297 142.778 8.41608 143.101 8.46324C143.383 8.51493 143.638 8.65934 143.824 8.87262C143.87 8.56275 143.997 8.26983 144.192 8.02244C144.388 7.77504 144.645 7.58166 144.94 7.46116C145.131 7.36828 145.34 7.31544 145.553 7.30598C145.766 7.29653 145.979 7.33068 146.178 7.40625C146.594 7.62554 146.906 7.99553 147.048 8.43739L148.376 11.6415L147.582 11.9645L146.359 9.02282C146.274 8.78815 146.152 8.56819 145.997 8.37118C145.886 8.25246 145.738 8.17441 145.576 8.14994C145.396 8.12147 145.211 8.14505 145.044 8.21778C144.889 8.27609 144.748 8.36519 144.629 8.47953C144.51 8.59387 144.417 8.731 144.355 8.88233C144.232 9.27522 144.27 9.69984 144.462 10.0653L145.589 12.7776L144.79 13.1006L143.529 10.0669C143.434 9.7821 143.251 9.53347 143.005 9.35552C142.89 9.29494 142.761 9.26323 142.63 9.26323C142.5 9.26323 142.371 9.29494 142.256 9.35552C142.035 9.44463 141.844 9.59393 141.706 9.7859C141.562 9.98522 141.492 10.2262 141.505 10.4698C141.537 10.8257 141.631 11.1736 141.782 11.4986L142.788 13.921L141.994 14.2472Z" fill="white"/>
</g>
</g>
</g>
</svg>
