<svg width="118" height="59" viewBox="0 0 118 59" fill="none" xmlns="http://www.w3.org/2000/svg">
<g id="Group">
<g id="Layer 1">
<g id="Group_2">
<path id="Vector" d="M118 18.3333H104.018V38.0593H118L113.364 28.1963L118 18.3333Z" fill="#E8831F"/>
<path id="Vector_2" d="M106.299 15.5658V35.2914H45.2246C45.2744 34.7167 45.2998 34.135 45.2998 33.5477C45.2998 29.9912 44.3687 26.6489 42.7381 23.7532C40.7566 20.2333 37.7419 17.373 34.1101 15.5891C34.0942 15.5815 34.0781 15.5734 34.062 15.5658H106.299H106.299Z" fill="#F7931E"/>
<g id="Vector_3" style="mix-blend-mode:multiply">
<path d="M106.299 35.2916V18.3333H108.396L106.299 35.2916Z" fill="#CCCCCC"/>
</g>
<g id="Vector_4" style="mix-blend-mode:multiply">
<path d="M104.018 38.0594V35.2916H106.299L104.018 38.0594Z" fill="#CCCCCC"/>
</g>
<g id="Group_3">
<path id="Vector_5" d="M53.7914 20.6788H56.3746V24.2228H59.0291V20.6788H61.6216V30.1688H59.0291V26.2459H56.3746V30.1688H53.7914V20.6788Z" fill="white"/>
<path id="Vector_6" d="M72.0188 25.373C72.0188 28.1452 70.715 30.3444 67.4864 30.3444C64.2577 30.3444 63.1195 28.1265 63.1195 25.3639C63.1195 22.9016 64.4414 20.5128 67.6336 20.5128C70.8259 20.5128 72.0188 22.809 72.0188 25.3732V25.373ZM65.8041 25.3546C65.8041 27.175 66.3479 28.4459 67.5828 28.4459C68.9238 28.4459 69.3433 27.2766 69.3433 25.35C69.3433 23.6776 68.9377 22.4157 67.5506 22.4157C66.2834 22.4157 65.8041 23.5896 65.8041 25.3546Z" fill="white"/>
<path id="Vector_7" d="M76.0262 20.6788V26.8235C76.0262 27.6693 76.2521 28.4413 77.3767 28.4413C78.5013 28.4413 78.6903 27.7016 78.6903 26.8235V20.6788H81.292V26.7407C81.292 28.9397 80.196 30.3444 77.3308 30.3444C74.4655 30.3444 73.4433 28.9258 73.4433 26.7361V20.6788H76.0265H76.0262Z" fill="white"/>
<path id="Vector_8" d="M85.5942 26.5139V30.1688H83.0799V20.6788H87.3771C89.4404 20.6788 90.5831 21.7641 90.5831 23.28C90.5831 24.5552 89.9381 25.193 89.1274 25.5163C90.1083 25.8952 90.4033 26.6942 90.4033 27.7895V28.0805C90.4033 28.8753 90.4356 29.7022 90.514 30.1691H88.0365C87.8983 29.7762 87.8524 29.1712 87.8524 28.0758V27.8079C87.8524 26.8144 87.5251 26.5141 86.5114 26.5141H85.5942V26.5139ZM85.5942 24.6615H86.7051C87.4839 24.6615 88.0414 24.3705 88.0414 23.5571C88.0414 22.8083 87.5391 22.522 86.8755 22.522H85.5942V24.6615Z" fill="white"/>
<path id="Vector_9" d="M94.0244 27.2722C94.1258 28.0437 94.5773 28.5199 95.4437 28.5199C96.3102 28.5199 96.6003 28.1501 96.6003 27.6279C96.6003 26.9347 96.1441 26.6248 94.8542 26.2692C92.505 25.6316 91.7956 24.7354 91.7956 23.4047C91.7956 21.4967 93.3431 20.5125 95.3146 20.5125C97.6548 20.5125 98.8565 21.6446 98.9625 23.3907H96.5173C96.4389 22.7946 96.1671 22.3047 95.3238 22.3047C94.674 22.3047 94.3238 22.6052 94.3238 23.1181C94.3238 23.7096 94.7477 23.8806 96.0147 24.2411C98.5068 24.9527 99.1977 25.9045 99.1977 27.3413C99.1977 29.1335 97.8763 30.3351 95.3656 30.3351C93.0398 30.3351 91.6625 29.1665 91.5565 27.2722H94.0247H94.0244Z" fill="white"/>
</g>
<g id="Group_4">
<path id="Vector_10" d="M53.7914 38.3532H58.7131V48.1107H63.8836L63.4047 51.5297H53.7911V38.3532H53.7914Z" fill="#253858"/>
<path id="Vector_11" d="M74.8763 46.5355H69.6674V48.1874H75.5659L75.0487 51.5295H64.9755V38.353H75.087V41.7145H69.6674V43.1743H74.8763V46.5358V46.5355Z" fill="#253858"/>
<path id="Vector_12" d="M76.9061 38.353H86.9029V41.6952H81.7321V43.3661H86.5581V46.7467H81.7321V51.5293H76.9061V38.3528V38.353Z" fill="#253858"/>
<path id="Vector_13" d="M91.154 41.7145H87.9559V38.353H99.1974V41.7145H96.0567V51.5298H91.154V41.7145Z" fill="#253858"/>
</g>
<path id="Vector_14" d="M29.6485 0H21.1047C20.2715 0 19.596 0.677488 19.596 1.5132V4.02917C19.596 4.86488 20.2715 5.54237 21.1047 5.54237C21.9379 5.54237 22.6134 6.21986 22.6134 7.05558V10.8298H28.1395V7.05558C28.1395 6.21986 28.815 5.54237 29.6482 5.54237C30.4815 5.54237 31.1569 4.86488 31.1569 4.02917V1.5132C31.1569 0.677488 30.4815 0 29.6482 0H29.6485Z" fill="#F7931E"/>
<path id="Vector_15" d="M14.6235 13.3651L10.3597 16.5767L6.83238 11.8653C6.16008 10.9674 6.3408 9.69278 7.23605 9.01848L8.25781 8.24889C9.15306 7.57459 10.4239 7.75584 11.0962 8.65377L14.6235 13.3651Z" fill="#F7931E"/>
<path id="Vector_16" d="M48.8056 23.7532C48.79 23.7153 48.7739 23.6773 48.758 23.6396C47.4825 20.6156 45.6583 17.8988 43.3362 15.5658C43.3311 15.5607 43.3257 15.5553 43.3205 15.5501C41.3664 13.5902 39.1422 11.9831 36.6923 10.7597C36.2215 10.5241 35.7424 10.3031 35.2552 10.0964C32.1245 8.76863 28.8013 8.09531 25.3766 8.09531C21.9519 8.09531 18.6285 8.76888 15.498 10.0964C12.476 11.3784 9.76235 13.2135 7.43263 15.5501C5.10291 17.8868 3.27357 20.6085 1.99516 23.6396C0.671564 26.7794 0 30.1127 0 33.5476C0 36.9826 0.671564 40.3159 1.99516 43.4557C3.27333 46.4868 5.10291 49.2085 7.43263 51.5452C9.76235 53.8818 12.476 55.7166 15.498 56.9989C18.6287 58.3267 21.9519 59 25.3766 59C28.8013 59 32.1247 58.3264 35.2552 56.9989C38.2772 55.7169 40.9908 53.8818 43.3205 51.5452C45.6503 49.2085 47.4796 46.4868 48.758 43.4557C49.8567 40.8499 50.506 38.111 50.6951 35.2913C50.7339 34.7133 50.7532 34.1321 50.7532 33.5476C50.7532 30.1543 50.0977 26.86 48.8056 23.7532ZM25.3766 53.5304C14.3908 53.5304 5.45335 44.5663 5.45335 33.5476C5.45335 22.529 14.3908 13.5649 25.3766 13.5649C28.4883 13.5649 31.4358 14.2841 34.062 15.5658C34.0781 15.5734 34.094 15.5815 34.1101 15.5891C37.7422 17.3729 40.7566 20.2333 42.7381 23.7532C44.3687 26.6488 45.2998 29.9912 45.2998 33.5476C45.2998 34.135 45.2744 34.7167 45.2246 35.2913C44.3411 45.4963 35.7768 53.5304 25.3766 53.5304Z" fill="#253858"/>
<path id="Vector_17" d="M25.6248 17.0862C26.2067 16.9484 26.5671 16.3636 26.4298 15.78C26.2924 15.1964 25.7094 14.8349 25.1275 14.9727C24.5456 15.1104 24.1852 15.6952 24.3225 16.2788C24.4599 16.8625 25.0429 17.2239 25.6248 17.0862Z" fill="#F7931E"/>
<path id="Vector_18" d="M26.1421 51.8346C26.5649 51.4106 26.5649 50.7231 26.1421 50.2991C25.7193 49.875 25.0339 49.875 24.6111 50.2991C24.1884 50.7231 24.1884 51.4106 24.6111 51.8346C25.0339 52.2586 25.7193 52.2586 26.1421 51.8346Z" fill="#F7931E"/>
<path id="Vector_19" d="M17.7067 18.5708C17.8151 17.9811 17.4264 17.4149 16.8384 17.3061C16.2505 17.1974 15.6859 17.5872 15.5775 18.177C15.469 18.7667 15.8578 19.3329 16.4457 19.4417C17.0337 19.5505 17.5982 19.1606 17.7067 18.5708Z" fill="#F7931E"/>
<path id="Vector_20" d="M34.1101 49.8054C34.708 49.8054 35.1927 49.3193 35.1927 48.7196C35.1927 48.1199 34.708 47.6338 34.1101 47.6338C33.5122 47.6338 33.0275 48.1199 33.0275 48.7196C33.0275 49.3193 33.5122 49.8054 34.1101 49.8054Z" fill="#F7931E"/>
<path id="Vector_21" d="M10.4486 25.8553C11.0363 25.7449 11.4234 25.1776 11.3134 24.5881C11.2033 23.9987 10.6376 23.6104 10.05 23.7208C9.46232 23.8312 9.07517 24.3986 9.18526 24.988C9.29534 25.5774 9.86097 25.9657 10.4486 25.8553Z" fill="#F7931E"/>
<path id="Vector_22" d="M41.4854 42.7582C41.7358 42.2136 41.4987 41.5686 40.9558 41.3175C40.4129 41.0663 39.7697 41.3041 39.5193 41.8487C39.2689 42.3932 39.5061 43.0383 40.049 43.2894C40.5919 43.5406 41.235 43.3027 41.4854 42.7582Z" fill="#F7931E"/>
<path id="Vector_23" d="M7.90956 34.6334C8.50744 34.6334 8.99212 34.1473 8.99212 33.5476C8.99212 32.948 8.50744 32.4619 7.90956 32.4619C7.31168 32.4619 6.827 32.948 6.827 33.5476C6.827 34.1473 7.31168 34.6334 7.90956 34.6334Z" fill="#F7931E"/>
<path id="Vector_24" d="M43.844 33.963C44.0728 33.409 43.8105 32.7738 43.2581 32.5444C42.7057 32.3149 42.0725 32.578 41.8437 33.132C41.6149 33.686 41.8772 34.3212 42.4295 34.5506C42.9819 34.7801 43.6152 34.517 43.844 33.963Z" fill="#F7931E"/>
<path id="Vector_25" d="M11.3214 42.4621C11.4059 41.8684 10.9947 41.3184 10.4028 41.2336C9.8109 41.1488 9.26255 41.5613 9.178 42.1549C9.09345 42.7486 9.50471 43.2986 10.0966 43.3834C10.6885 43.4682 11.2368 43.0557 11.3214 42.4621Z" fill="#F7931E"/>
<path id="Vector_26" d="M41.4158 25.374C41.7381 24.8689 41.5912 24.1974 41.0876 23.8741C40.584 23.5509 39.9145 23.6983 39.5922 24.2033C39.2699 24.7084 39.4169 25.3799 39.9205 25.7032C40.424 26.0264 41.0935 25.879 41.4158 25.374Z" fill="#F7931E"/>
<path id="Vector_27" d="M16.6755 49.8036C17.2732 49.7877 17.7448 49.2889 17.729 48.6894C17.7131 48.0899 17.2158 47.6169 16.6181 47.6328C16.0204 47.6487 15.5488 48.1475 15.5646 48.747C15.5805 49.3465 16.0778 49.8195 16.6755 49.8036Z" fill="#F7931E"/>
<path id="Vector_28" d="M34.1101 19.4613C34.708 19.4613 35.1927 18.9751 35.1927 18.3755C35.1927 17.7758 34.708 17.2897 34.1101 17.2897C33.5122 17.2897 33.0275 17.7758 33.0275 18.3755C33.0275 18.9751 33.5122 19.4613 34.1101 19.4613Z" fill="#F7931E"/>
</g>
</g>
</g>
</svg>
